<svg width="63" height="80" viewBox="0 0 63 80" fill="none" xmlns="http://www.w3.org/2000/svg">
    <path d="M24.5164 0.160767C17.8421 0.911045 11.2146 4.38108 6.88489 9.36731C0.366847 16.8857 -1.66516 26.9207 1.39848 36.3148C1.99245 38.128 3.00845 40.285 3.5399 40.8321C4.7591 42.1138 7.07246 41.3792 7.41634 39.5973C7.54139 38.9408 7.43197 38.5969 6.54101 36.5649C5.24366 33.6263 4.54027 29.8124 4.71221 26.5612C5.02483 20.8091 7.18188 15.8385 11.1834 11.6963C14.4815 8.28878 18.3735 6.14737 23.1253 5.13136C25.423 4.63118 29.6902 4.61555 31.8942 5.11573C40.4911 7.00706 47.2436 13.2125 49.6195 21.3718C50.3229 23.7945 50.5105 25.4201 50.4167 28.3587C50.3229 31.3755 49.9634 33.2668 48.9943 35.7677C48.369 37.3777 48.3065 38.0498 48.6817 38.847C49.3694 40.3007 51.6671 40.457 52.6206 39.1127C53.027 38.5344 53.9492 36.0178 54.3556 34.3766C55.4811 29.8124 55.4185 24.8418 54.1993 20.387C52.4487 14.0409 48.3378 8.3982 42.6794 4.63118C37.365 1.08298 30.7531 -0.542618 24.5164 0.160767Z" fill="#f9bc56"/>
    <path d="M25.0635 9.53922C15.7475 10.8991 8.85436 19.2616 9.41707 28.5306C9.6359 32.2039 11.027 36.2054 12.3244 36.9088C13.8718 37.7372 15.7632 36.6274 15.7632 34.908C15.7632 34.5329 15.5756 33.8451 15.2943 33.2355C14.3877 31.2191 14.1376 29.9999 14.1376 27.5772C14.1532 25.8578 14.2157 25.1388 14.4814 24.1697C15.7632 19.496 19.4833 15.7759 24.1882 14.4942C25.9388 14.0096 29.1275 14.0096 30.8156 14.4942C35.1454 15.729 38.5841 18.7927 40.2097 22.8723C41.3821 25.8109 41.3977 29.3278 40.2254 32.4227C39.6001 34.0952 39.7408 34.9705 40.7725 35.8459C41.1632 36.1585 41.429 36.2523 42.0386 36.2523C43.5235 36.2523 44.0862 35.6896 44.8208 33.4856C45.5711 31.266 45.8212 29.4841 45.7274 26.9519C45.6024 23.4819 44.7427 20.7309 42.8826 17.8548C41.7728 16.1667 39.1156 13.4782 37.49 12.4153C33.723 9.97688 29.2526 8.92962 25.0635 9.53922Z" fill="#f9bc56"/>
    <path d="M26.3765 19.1209C24.7821 19.5429 23.7036 20.4807 22.969 22.0282L22.5626 22.8879V42.0356V61.1834L23.0471 62.512C23.2972 63.2466 23.7818 64.2626 24.11 64.7472C24.9385 65.9976 26.5172 67.3888 27.8614 68.0453C29.9403 69.0769 29.8778 69.0769 42.6481 69.0769C55.4341 69.0769 55.3716 69.0769 57.4974 68.0453C59.1543 67.2325 60.9831 65.388 61.7803 63.7312C62.7494 61.7148 62.8119 61.1834 62.8119 53.9776C62.8119 47.9597 62.7963 47.4751 62.4993 46.5217C61.4989 43.2705 57.4818 41.9262 54.8089 43.9582C53.9648 44.5991 53.1677 45.7714 52.9332 46.6936L52.7613 47.4126L52.5424 46.6623C52.1204 45.2087 51.0888 44.0207 49.6976 43.3799C48.666 42.9109 46.7591 42.9266 45.6962 43.4111C44.3363 44.0364 43.2265 45.3337 42.867 46.7092L42.695 47.4282L42.4449 46.5686C42.0073 45.0993 40.8975 43.8957 39.3657 43.2705C38.6623 42.9891 36.6303 42.9891 35.9269 43.2705C34.4576 43.8801 33.129 45.3025 32.8476 46.5686C32.7695 46.8655 32.6913 41.6292 32.6444 34.9236C32.5663 22.8566 32.5663 22.7316 32.2224 22.0126C31.5346 20.5433 30.3467 19.5429 28.7836 19.1365C27.7364 18.8551 27.3456 18.8551 26.3765 19.1209Z" fill="#f9bc56"/>
    <path d="M29.0494 75.9389C29.0494 78.2522 29.065 78.4398 29.4089 78.94C30.1592 80.081 29.4558 80.0185 42.8358 79.9873C54.7464 79.9404 54.8246 79.9404 55.2622 79.6121C56.1845 78.9244 56.3251 78.4554 56.372 75.8295L56.4346 73.438L55.5905 73.563C54.5432 73.7193 30.8 73.7349 29.7997 73.5786L29.0494 73.4536V75.9389Z" fill="#f9bc56"/>
</svg>
