<svg width="85" height="73" viewBox="0 0 85 73" fill="none" xmlns="http://www.w3.org/2000/svg">
    <path d="M40.0714 0.950598C38.591 1.20011 36.6448 1.89874 35.181 2.71381C33.3014 3.76175 30.7564 6.29013 29.7417 8.08661C26.3983 14.025 27.3464 21.1942 32.1204 25.9516C34.9482 28.796 38.4746 30.2432 42.5 30.2432C46.5255 30.2432 50.0519 28.796 52.8797 25.9516C57.6536 21.1942 58.6018 14.025 55.2583 8.08661C54.2437 6.29013 51.6986 3.76175 49.819 2.71381C46.8581 1.06704 43.2818 0.418308 40.0714 0.950598Z" fill="#f9bc56"/>
    <path d="M13.7564 14.9065C10.4795 15.7715 7.65166 18.25 6.35421 21.3938C5.73875 22.8909 5.55577 23.8889 5.55577 25.6521C5.55577 27.432 5.87182 28.8459 6.65362 30.4594C8.01761 33.2872 10.7789 35.5161 13.8894 36.2979C15.3033 36.6639 17.7984 36.6472 19.2123 36.2813C21.6742 35.6492 24.2691 33.8194 25.683 31.7236C27.9286 28.3967 28.1448 23.9887 26.2485 20.3459C25.4002 18.7157 23.3875 16.703 21.7573 15.8547C19.3288 14.5905 16.3346 14.2412 13.7564 14.9065Z" fill="#f9bc56"/>
    <path d="M65.6546 14.9065C62.8435 15.6551 60.0656 17.8341 58.7515 20.3459C57.2378 23.2568 57.0382 26.6668 58.2358 29.6776C59.5 32.8214 62.4609 35.4163 65.7877 36.2813C67.2016 36.6472 69.6967 36.6639 71.1106 36.2979C75.0362 35.2999 78.1634 32.1727 79.1781 28.2304C79.4941 27.0161 79.544 24.5376 79.2779 23.3067C78.3963 19.2647 75.1693 15.9212 71.1771 14.9065C69.5137 14.474 67.3014 14.474 65.6546 14.9065Z" fill="#f9bc56"/>
    <path d="M32.4364 33.6199C29.908 34.1855 28.2446 35.117 26.3483 37.0133C24.7681 38.5935 23.9198 39.9409 23.2211 41.9869L22.7887 43.2677L22.7388 57.2403C22.7055 70.98 22.7055 71.2295 23.0382 71.7618C23.2211 72.0612 23.6037 72.4438 23.9031 72.6268C24.4354 72.9595 24.7847 72.9595 42.5 72.9595C60.2153 72.9595 60.5646 72.9595 61.0969 72.6268C61.3963 72.4438 61.7789 72.0612 61.9618 71.7618C62.2945 71.2295 62.2945 70.98 62.2613 57.2403L62.2114 43.2677L61.7789 41.9869C61.0802 39.9409 60.2319 38.5935 58.6517 37.0133C57.0714 35.433 55.7241 34.5847 53.6781 33.8861L52.3973 33.4536L42.9159 33.4203C35.4139 33.4037 33.2182 33.437 32.4364 33.6199Z" fill="#f9bc56"/>
    <path d="M10.5959 39.8743C5.82192 40.4898 1.89628 43.8831 0.382583 48.6737C0 49.9213 0 49.9545 0 58.571V67.2207L0.382583 68.1688C1.16438 70.115 2.77789 71.7119 4.70744 72.4937C5.62231 72.8596 5.82192 72.8763 11.9266 72.9262L18.1977 72.9761L17.998 72.4272C17.7485 71.6953 17.6155 46.2784 17.865 44.0162C17.9648 43.1512 18.1644 41.9868 18.3141 41.4379C18.4638 40.889 18.6301 40.2735 18.6634 40.0573L18.7466 39.6913L15.2035 39.708C13.2407 39.7246 11.1614 39.7911 10.5959 39.8743Z" fill="#f9bc56"/>
    <path d="M66.3366 40.0573C66.3699 40.2735 66.5362 40.889 66.6859 41.4379C66.8356 41.9868 67.0352 43.1512 67.135 44.0162C67.3845 46.2784 67.2515 71.6953 67.002 72.4272L66.8023 72.9761L73.0734 72.9262C79.1781 72.8763 79.3777 72.8596 80.2926 72.4937C82.2221 71.7119 83.8356 70.115 84.6174 68.1688L85 67.2207V58.571C85 49.9379 85 49.9213 84.6008 48.6737C83.3532 44.6816 80.5421 41.7207 76.7661 40.4399C75.0861 39.8743 73.3894 39.6913 69.5636 39.6913H66.2534L66.3366 40.0573Z" fill="#f9bc56"/>
</svg>
