<svg width="85" height="75" viewBox="0 0 85 75" fill="none" xmlns="http://www.w3.org/2000/svg">
    <path d="M31.0577 0.442566C28.932 0.857742 26.7897 2.51845 25.8929 4.44487C25.2785 5.75682 25.0626 6.8695 25.0626 8.74609V10.2241H14.6666C6.41285 10.2241 4.28715 10.2739 4.33697 10.4234C4.38679 10.5397 6.5291 16.9832 9.1032 24.7221C12.4412 34.7029 13.9192 38.9377 14.2182 39.2865C14.4341 39.5522 14.8991 39.8511 15.2312 39.9508C15.6132 40.0504 18.619 40.1168 22.9535 40.1168H30.0447V38.6222C30.0447 36.7622 30.3768 35.9817 31.3733 35.4668C32.0043 35.1513 32.3365 35.1347 42.5 35.1347C52.6635 35.1347 52.9957 35.1513 53.6267 35.4668C54.6231 35.9817 54.9553 36.7622 54.9553 38.6222V40.1168H62.0631C66.3809 40.1168 69.3868 40.0504 69.7688 39.9508C70.1009 39.8511 70.5659 39.5522 70.7818 39.2865C71.0807 38.9377 72.5588 34.7029 75.8968 24.7221C78.4709 16.9832 80.6132 10.5397 80.663 10.4234C80.7128 10.2739 78.5871 10.2241 70.3334 10.2241H59.9374V8.74609C59.9374 7.94896 59.8544 6.8861 59.7713 6.38789C59.2067 3.39862 56.7987 0.990597 53.8094 0.425961C52.7133 0.226673 32.1206 0.226673 31.0577 0.442566ZM53.6267 5.57415C54.6231 6.08897 54.9553 6.8695 54.9553 8.72949V10.2241H42.5H30.0447V8.72949C30.0447 6.90271 30.3768 6.08897 31.34 5.59075C31.9379 5.27522 32.3365 5.25861 42.4668 5.242C52.6801 5.242 52.9957 5.25861 53.6267 5.57415Z" fill="#f9bc56"/>
    <path d="M0.00254327 40.6317C-0.0140638 58.5839 0.0523644 68.2824 0.152007 68.8637C0.716647 71.853 3.12467 74.261 6.11394 74.8256C7.34286 75.0581 77.6571 75.0581 78.8861 74.8256C81.8753 74.261 84.2834 71.853 84.848 68.8637C84.9476 68.2824 85.0141 58.5839 84.9975 40.6317L84.9809 13.2965L80.4637 26.8312C77.9727 34.2712 75.7639 40.6981 75.548 41.1133C75.0166 42.1595 73.5386 43.6376 72.4923 44.169C70.7154 45.0658 70.4331 45.099 62.3953 45.099H54.9553V46.5936C54.9553 48.4536 54.6232 49.2342 53.6267 49.749C52.9957 50.0645 52.6635 50.0811 42.5 50.0811C32.3365 50.0811 32.0043 50.0645 31.3733 49.749C30.3769 49.2342 30.0447 48.4536 30.0447 46.5936V45.099H22.6214C14.5669 45.099 14.2846 45.0658 12.5077 44.169C11.4614 43.6376 9.98338 42.1595 9.45196 41.1133C9.23607 40.6981 7.02733 34.2712 4.53627 26.8312L0.0191503 13.2965L0.00254327 40.6317Z" fill="#f9bc56"/>
    <path d="M35.0268 42.6079V45.099H42.5H49.9731V42.6079V40.1169H42.5H35.0268V42.6079Z" fill="#f9bc56"/>
</svg>
