<svg width="81" height="80" viewBox="0 0 81 80" fill="none" xmlns="http://www.w3.org/2000/svg">
    <path d="M40.3701 0.182089C36.8522 0.979485 33.8033 4.05962 33.0685 7.54628C32.615 9.65703 32.8808 11.6583 33.8815 13.6909C34.6945 15.3482 36.5082 17.1619 38.1655 17.975C43.6691 20.6799 49.9076 17.7248 51.4555 11.7052C52.6437 7.06158 49.9232 2.07395 45.3577 0.479158C43.9037 -0.0211697 41.8085 -0.146252 40.3701 0.182089Z" fill="#f9bc56"/>
    <path d="M30.989 20.0545C30.004 21.3835 29.191 23.0095 28.675 24.7607C28.331 25.9177 28.2529 26.5431 28.1903 28.6538C28.1121 31.0929 28.1121 31.2024 28.4717 31.8434C28.7063 32.2343 29.0659 32.6252 29.4255 32.7972C29.9884 33.0786 30.5356 33.0942 42.2933 33.0942C54.3011 33.0942 54.5982 33.0942 55.1923 32.7815C56.2086 32.2656 56.4431 31.6089 56.4431 29.2949C56.4431 25.3704 55.5988 22.7281 53.4412 19.8356L52.8158 19.0069L51.9246 19.8512C50.236 21.4616 48.0001 22.6812 45.561 23.3379C43.9193 23.7757 40.6828 23.7444 38.9473 23.2753C36.5395 22.6186 34.4288 21.4773 32.7245 19.8981L31.7708 19.0225L30.989 20.0545Z" fill="#f9bc56"/>
    <path d="M25.3291 37.2377C23.6717 37.5661 22.5147 37.9413 21.1857 38.5823C20.0443 39.1296 19.5753 39.411 17.746 40.6618C17.402 40.8964 16.4013 41.725 15.5258 42.4911L13.9153 43.8983L20.6072 57.2508L27.2835 70.6189H41.1206C56.021 70.6189 56.4431 70.6033 58.7415 69.7902C60.8523 69.0554 63.4477 67.3199 64.7454 65.7407C65.0581 65.3811 68.5135 60.4716 72.4536 54.843C80.1618 43.8045 80.1774 43.7576 80.0054 42.069C79.9585 41.6156 79.7865 40.9433 79.6145 40.568C78.4888 38.0038 75.221 37.0188 72.8601 38.5354C72.4223 38.8169 70.0614 41.5999 65.5897 47.0879C61.8842 51.6221 58.7102 55.3902 58.3975 55.5935C57.0373 56.5003 56.7402 56.5316 50.2203 56.5472C44.5291 56.5472 44.2008 56.5316 43.6223 56.2345C42.9187 55.8749 42.3714 54.9837 42.3714 54.2019C42.3714 53.4983 42.9187 52.529 43.5128 52.2163C43.9506 51.9661 44.6385 51.9192 49.6418 51.8566C54.9891 51.7785 55.3018 51.7628 55.9897 51.4501C56.9278 51.0123 57.9441 49.996 58.3663 49.0579C58.8353 48.0573 58.8353 46.2749 58.3663 45.2742C57.9441 44.3361 56.9278 43.3198 55.9897 42.882C55.3018 42.5693 55.0203 42.5537 48.1565 42.4755C41.9024 42.413 40.9799 42.3661 40.6516 42.1472C40.4327 42.0065 39.7134 41.428 39.0255 40.8651C35.789 38.1602 32.5212 36.9876 28.2997 37.0188C27.2209 37.0188 25.8919 37.1283 25.3291 37.2377Z" fill="#f9bc56"/>
    <path d="M2.98633 46.6188C0.734855 47.7289 0.594138 47.8227 0.312704 48.4638C0.140717 48.8234 0 49.3081 0 49.5582C0 49.8084 2.90815 55.7967 7.34855 64.6775C14.5564 79.0932 14.7127 79.3746 15.3069 79.6873C15.6509 79.8593 16.1824 80 16.4795 80C17.2613 80 20.9512 78.1238 21.7642 77.3107C22.9525 76.1225 23.3903 74.387 22.9212 72.7765C22.7961 72.3075 19.9036 66.3505 16.5108 59.5491C10.757 48.0416 10.288 47.1504 9.61566 46.6032C8.63064 45.7745 7.80197 45.4618 6.47298 45.4618C5.37851 45.4462 5.26907 45.4774 2.98633 46.6188Z" fill="#f9bc56"/>
</svg>
